<?xml version="1.0" encoding="UTF-8"?>
<svg id="Ebene_2" data-name="Ebene 2" xmlns="http://www.w3.org/2000/svg" viewBox="0 0 489.19 489.19">
  <defs>
    <style>
      .cls-1 {
        fill: #fff;
      }
    </style>
  </defs>
  <g id="Ebene_1-2" data-name="Ebene 1">
    <path class="cls-1" d="m477.23,371.16l-122.92-122.92c-2.02-2.02-2.02-5.28,0-7.3l122.92-122.92c15.95-15.95,15.95-42.05,0-57.99l-48.07-48.07c-15.95-15.95-42.05-15.95-57.99,0l-122.92,122.92c-2.02,2.02-5.28,2.02-7.3,0L118.03,11.96c-15.95-15.95-42.05-15.95-57.99,0L11.96,60.03c-15.95,15.95-15.95,42.05,0,57.99l122.92,122.92c2.02,2.02,2.02,5.28,0,7.3L11.96,371.16c-15.95,15.95-15.95,42.05,0,57.99l48.07,48.07c15.95,15.95,42.05,15.95,57.99,0l122.92-122.92c2.02-2.02,5.28-2.02,7.3,0l122.92,122.92c15.95,15.95,42.05,15.95,57.99,0l48.07-48.07c15.95-15.95,15.95-42.05,0-57.99Z"/>
  </g>
</svg>